# Blender v2.78 (sub 0) OBJ File: 'cube.blend'
# www.blender.org
v 1.000000 -1.000000 -1.000000
v 1.000000 -1.000000 1.000000
v -1.000000 -1.000000 1.000000
v -1.000000 -1.000000 -1.000000
v 1.000000 1.000000 -0.999999
v 0.999999 1.000000 1.000001
v -1.000000 1.000000 1.000000
v -1.000000 1.000000 -1.000000
v 1.000000 1.000000 -0.999999
v 0.999999 1.000000 1.000001
v -1.000000 1.000000 1.000000
v -1.000000 1.000000 -1.000000
vt 0.0094 0.3428
vt 0.3239 0.6572
vt 0.0094 0.6572
vt 0.3239 0.3428
vt 0.6572 0.0094
vt 0.3428 0.3239
vt 0.3428 0.0094
vt 0.6572 0.3239
vt 0.3239 0.6761
vt 0.0094 0.9906
vt 0.0094 0.6761
vt 0.9906 0.3239
vt 0.6761 0.0094
vt 0.9906 0.0094
vt 0.0094 0.3239
vt 0.3239 0.0094
vt 0.3239 0.3239
vt 0.6572 0.9906
vt 0.3428 0.6761
vt 0.6572 0.6761
vt 0.3239 0.9906
vt 0.6761 0.3239
vt 0.0094 0.0094
vt 0.3428 0.9906
vn 0.0000 -0.0000 1.0000
vn 0.0000 0.0000 -1.0000
vn 0.0000 -1.0000 0.0000
vn 0.0000 1.0000 0.0000
vn 1.0000 -0.0000 0.0000
vn -1.0000 -0.0000 -0.0000
s off
f 6/1/1 3/2/1 2/3/1
f 6/1/1 7/4/1 3/2/1
f 1/5/2 8/6/2 5/7/2
f 1/5/2 4/8/2 8/6/2
f 2/9/3 4/10/3 1/11/3
f 8/12/4 6/13/4 5/14/4
f 5/15/5 2/16/5 1/17/5
f 3/18/6 8/19/6 4/20/6
f 2/9/3 3/21/3 4/10/3
f 8/12/4 7/22/4 6/13/4
f 5/15/5 6/23/5 2/16/5
f 3/18/6 7/24/6 8/19/6
